<svg id="Capa_1" data-name="Capa 1" xmlns="http://www.w3.org/2000/svg" viewBox="0 0 619.82 535.93"><defs><style>.cls-1{fill:#fff;}.cls-2{fill:#e11f1d;}.cls-3{fill:#71a3d8;}</style></defs><title>logos cuadrado</title><path class="cls-1" d="M671.93,185.81V160.53a30.83,30.83,0,0,0-10.54-23.25L655.8,111a30.72,30.72,0,0,0,3.4-14.12V71.62a30.93,30.93,0,0,0-30.93-30.93H564.81A30.76,30.76,0,0,0,549.17,45a30.87,30.87,0,0,0-15.76-4.44H484.17a30.84,30.84,0,0,0-16,4.58,30.7,30.7,0,0,0-15.88-4.42H388.81A30.73,30.73,0,0,0,373,45.06a30.75,30.75,0,0,0-15.6-4.37H305.19a30.94,30.94,0,0,0-21.87,9.06L270.6,62.48A29.93,29.93,0,0,0,267.68,66a30.92,30.92,0,0,0-30.4-25.34H173.82a30.9,30.9,0,0,0-26.36,14.8,30.9,30.9,0,0,0-26.36-14.8h-38A30.93,30.93,0,0,0,52.16,71.62V96.91a30.83,30.83,0,0,0,6.28,18.69v26.24a30.83,30.83,0,0,0-6.28,18.69v25.28a30.88,30.88,0,0,0,2.21,11.45,31,31,0,0,0-1.62,9.84v23A30.73,30.73,0,0,0,58.46,248v22a30.74,30.74,0,0,0-5.71,17.91v23a30.94,30.94,0,0,0,1.49,9.48,30.77,30.77,0,0,0-2.13,11.23v65.33a30.82,30.82,0,0,0,10.22,23v37.35a30.82,30.82,0,0,0-10.22,23v65.33A30.93,30.93,0,0,0,83,576.46H206.89a30.83,30.83,0,0,0,18.42-6.13,30.76,30.76,0,0,0,18.42,6.13H339.1a30.76,30.76,0,0,0,18.73-6.36,30.91,30.91,0,0,0,18.73,6.36h87a31,31,0,0,0,22.49-9.69l9.39-9.94,9.34,9.91a30.9,30.9,0,0,0,22.51,9.72H614.1a30.88,30.88,0,0,0,22.38-9.59L663.05,539a30.89,30.89,0,0,0,8.55-21.34V433.45a31,31,0,0,0-.94-7.58,31.15,31.15,0,0,0,.94-7.6V359.14a30.92,30.92,0,0,0-8.55-21.35l-2.77-2.9a30.71,30.71,0,0,0,10.14-33.33L659.7,267.35A30.86,30.86,0,0,0,671.6,243v-6.52a30.86,30.86,0,0,0-13.08-25.19A30.89,30.89,0,0,0,671.93,185.81Z" transform="translate(-52.11 -40.53)"/><path class="cls-2" d="M155.15,185.81H83.09V160.53h6.28V96.91H83.09V71.62h38V96.91h-6.28v63.62H129.7V147.81h25.45Z" transform="translate(-52.11 -40.53)"/><path class="cls-2" d="M250,185.81H212V160.53h6.28L217,154.09H194.31L193,160.53h6.28v25.28h-38V160.53h6.28l13.55-63.62h-7.27V71.62h63.46V96.91h-7.11l13.55,63.62H250Zm-38.5-57.17-5.95-27.44-5.79,27.44Z" transform="translate(-52.11 -40.53)"/><path class="cls-2" d="M357.42,185.81H305.19l-12.72-12.72V84.35l12.72-12.73h52.23l12.72,12.73v25.28H344.69V96.91H317.92v63.62h26.77V147.81h25.45v25.28Z" transform="translate(-52.11 -40.53)"/><path class="cls-2" d="M465,185.81H427V160.53h6.28L432,154.09H409.31L408,160.53h6.28v25.28h-38V160.53h6.27l13.56-63.62h-7.28V71.62h63.46V96.91h-7.1l13.55,63.62H465Zm-38.51-57.17-5.95-27.44-5.78,27.44Z" transform="translate(-52.11 -40.53)"/><path class="cls-2" d="M533.41,185.81H484.17l-12.73-12.72V147.64h25.45v12.72h23.8v-19H484.17l-12.73-12.72V84.18l12.73-12.72h49.24l12.73,12.72v25.45H520.69V96.91h-23.8v19h36.52l12.73,12.73v44.45Z" transform="translate(-52.11 -40.53)"/><path class="cls-2" d="M641,185.81H603V160.53h6.28l-1.33-6.44H585.3L584,160.53h6.28v25.28h-38V160.53h6.28l13.55-63.62h-7.27V71.62h63.46V96.91h-7.11l13.56,63.62H641Zm-38.51-57.17-6-27.44-5.78,27.44Z" transform="translate(-52.11 -40.53)"/><path class="cls-2" d="M145.11,310.87H83.68v-23h5.71V230.07H83.68v-23h61.43l11.56,11.56v80.65Zm-11.57-80.8h-21v57.82h21Z" transform="translate(-52.11 -40.53)"/><path class="cls-2" d="M162.78,310.87V287.74h5.86V230.07h-5.86V207h70v34.69H209.64V230.07H191.77v17.27h22.37v23.13H191.77v17.27h17.87V276.18h23.13v34.69Z" transform="translate(-52.11 -40.53)"/><path class="cls-2" d="M233.52,517.66l-26.63,27.87H83V480.2H93.26V396.91H83V331.58H206.89l26.63,27.87ZM227,362.54l-23-24.15H89.54V390.1h10.53V487H89.54v51.71H204.05l23-24.15Zm-4.34,150.13-20.43,21.4H94.19V491.35h10.52V385.45H94.19V342.73H202.25l20.43,21.39Zm-40.87-21.32V385.45H145v105.9ZM149.3,487V390.1h27.87V487Zm21.36-6.81V396.91H155.8V480.2Z" transform="translate(-52.11 -40.53)"/><path class="cls-2" d="M339.1,479.89v65.64H243.73V479.89h18.89v-83H243.73V331.27h77.1V479.89Zm-24.77,6.81V338.08H250.24v52H268.5v96.6H250.24v52h83v-52Zm14.55,4.65v42.72H254V491.35h18.89V385.45H254V342.73H310.3V491.35Z" transform="translate(-52.11 -40.53)"/><path class="cls-2" d="M489.88,517.66l-26.32,27.87h-87l-26.32-27.87V359.45l26.32-27.87h87l26.32,27.87Zm-6.5-155.12-22.6-24.15H379.35l-22.61,24.15v152l22.61,24.15h81.43l22.6-24.15ZM479,512.67l-20.12,21.4H381.2l-19.81-21.4V364.12l19.81-21.39h77.72L479,364.12Zm-40.25-21.32V385.45H401.64v105.9ZM405.66,487V390.1h28.8V487ZM428,480.2V396.91H412.17V480.2Z" transform="translate(-52.11 -40.53)"/><path class="cls-2" d="M640.67,517.66,614.1,545.53H527.29L501,517.66V458.52h14.24L501,443.35V359.14l26.26-27.87H614.1l26.57,27.87v59.13H626.43l14.24,15.17Zm-6.5-81.12-22.61-24.15H556.45V390.1h28.79v21.36h48.93V362.23l-22.61-24.15H530.13l-22.6,24.15v78l22.6,24.15h55.11V486.7H556.45V465.34H507.53v49.23l22.6,24.15h81.43l22.61-24.15Zm-4.34,76.17-20.12,21.36H532l-20.13-21.36V470.29h40.26v21.06h37.46V459.76H532L511.86,438.4V364.09L532,342.73h77.72l20.12,21.36v42.42H589.58V385.45H552.12V417h57.59l20.12,21.36ZM563,405.58h15.79v-8.67H563Zm0,65.64v8.67h15.79v-8.67Z" transform="translate(-52.11 -40.53)"/><path class="cls-3" d="M243.36,310.82l14.25-45.45h11.48l14.25,45.45h-9.46L271,301.29H255.52l-2.82,9.53Zm14.31-17.69h11.18l-5.59-20Z" transform="translate(-52.11 -40.53)"/><path class="cls-3" d="M295.81,310.82V265.37H314.6a18.85,18.85,0,0,1,5,.64,10.07,10.07,0,0,1,4.11,2.24,10.66,10.66,0,0,1,2.8,4.43,21.93,21.93,0,0,1,1,7.24,20.12,20.12,0,0,1-.61,5.34,11.32,11.32,0,0,1-1.63,3.63,8.84,8.84,0,0,1-2.3,2.27,14.06,14.06,0,0,1-2.64,1.41l8.47,18.25h-9.27L312.27,294l-1.69,0c-.63,0-1.28,0-1.93,0h-2c-.66,0-1.25,0-1.78-.07v17Zm9.09-24.14H313a7.29,7.29,0,0,0,2.21-.31,4,4,0,0,0,1.72-1.07,5.09,5.09,0,0,0,1.13-2.06,11.35,11.35,0,0,0,.4-3.32,10.52,10.52,0,0,0-.4-3.16,4.59,4.59,0,0,0-1.13-2,4.11,4.11,0,0,0-1.72-1,8.42,8.42,0,0,0-2.21-.27H304.9Z" transform="translate(-52.11 -40.53)"/><path class="cls-3" d="M354.71,311.12a13.62,13.62,0,0,1-7-1.62,11.12,11.12,0,0,1-4.27-4.67,23.55,23.55,0,0,1-2.15-7.28,66.26,66.26,0,0,1-.62-9.46,60.66,60.66,0,0,1,.71-9.76,20.16,20.16,0,0,1,2.52-7.28A11.78,11.78,0,0,1,349,266.5a19.8,19.8,0,0,1,8.45-1.56c2.09,0,4,.08,5.74.24s3.39.4,5,.71,3.11.67,4.66,1.07v7c-.86-.13-2-.25-3.43-.37s-3-.24-4.8-.34-3.58-.16-5.46-.16a10.32,10.32,0,0,0-5.87,1.39,7.34,7.34,0,0,0-2.73,4.66,43.2,43.2,0,0,0-.74,9,54.58,54.58,0,0,0,.4,7.25,12.93,12.93,0,0,0,1.32,4.45,5.05,5.05,0,0,0,2.43,2.27,9.23,9.23,0,0,0,3.71.65,26.06,26.06,0,0,0,4.83-.43,35.85,35.85,0,0,0,3.71-.86v-8.84H358v-7.19c.86-.12,1.89-.22,3.07-.31s2.43-.15,3.72-.21,2.53-.09,3.72-.09,2.48,0,3.53,0,2,.07,2.85.15v25.8H368l-1.23-3.08a31,31,0,0,1-5,2.22A21,21,0,0,1,354.71,311.12Z" transform="translate(-52.11 -40.53)"/><path class="cls-3" d="M401.26,311.12a24.43,24.43,0,0,1-3.38-.27,10.65,10.65,0,0,1-3.65-1.26,7.68,7.68,0,0,1-2.89-3,11.16,11.16,0,0,1-1.13-5.5V275.75a12.07,12.07,0,0,1,.92-5,8.06,8.06,0,0,1,2.45-3.19,9.7,9.7,0,0,1,3.38-1.66,14,14,0,0,1,3.63-.49q4.61,0,8.13.12c2.36.08,4.47.17,6.36.28s3.6.23,5.16.39v7.62H403.29a4.34,4.34,0,0,0-3,.92,3.58,3.58,0,0,0-1,2.83v6.57l18,.49v7.19l-18,.49v6.26a4.9,4.9,0,0,0,.53,2.49,2.72,2.72,0,0,0,1.41,1.23,5.34,5.34,0,0,0,1.87.34h17.14v7.61q-2.7.32-6,.49t-6.63.31Q404.28,311.12,401.26,311.12Z" transform="translate(-52.11 -40.53)"/><path class="cls-3" d="M434.67,310.82V265.37H442l19,30v-30h9.09v45.45H462.8l-19-30v30Z" transform="translate(-52.11 -40.53)"/><path class="cls-3" d="M494.62,310.82V273.54H482.15v-8.17h34.08v8.17H503.71v37.28Z" transform="translate(-52.11 -40.53)"/><path class="cls-3" d="M528.64,310.82V265.37h9.09v45.45Z" transform="translate(-52.11 -40.53)"/><path class="cls-3" d="M553.39,310.82V265.37h7.31l19,30v-30h9.09v45.45h-7.31l-19-30v30Z" transform="translate(-52.11 -40.53)"/><path class="cls-3" d="M600.93,310.82l14.25-45.45h11.48l14.25,45.45h-9.46l-2.89-9.53H613.09l-2.83,9.53Zm14.31-17.69h11.18l-5.59-20Z" transform="translate(-52.11 -40.53)"/><path class="cls-3" d="M335,247.2V207h16.95a17.93,17.93,0,0,1,4,.46,9.1,9.1,0,0,1,3.75,1.85,9.66,9.66,0,0,1,2.77,4.15,21.16,21.16,0,0,1,1.06,7.34,21.63,21.63,0,0,1-1.06,7.39,10.51,10.51,0,0,1-2.75,4.29,8.58,8.58,0,0,1-3.64,2,15.42,15.42,0,0,1-3.8.49c-.65,0-1.41,0-2.28-.08s-1.75-.13-2.64-.24l-2.47-.3c-.76-.09-1.37-.17-1.85-.25V247.2Zm8-19.5h8a4.25,4.25,0,0,0,2.42-.68,4,4,0,0,0,1.49-2.17,13.13,13.13,0,0,0,.49-4,11.64,11.64,0,0,0-.52-3.88,4.08,4.08,0,0,0-1.46-2.09,3.88,3.88,0,0,0-2.26-.66H343Z" transform="translate(-52.11 -40.53)"/><path class="cls-3" d="M369.65,247.2,382.26,207h10.16L405,247.2h-8.36l-2.56-8.42H380.41l-2.5,8.42Zm12.66-15.64h9.89l-4.94-17.66Z" transform="translate(-52.11 -40.53)"/><path class="cls-3" d="M279,247.2,291.6,207h10.15l12.61,40.2H306l-2.55-8.42H289.75l-2.5,8.42Zm12.66-15.64h9.89l-5-17.66Z" transform="translate(-52.11 -40.53)"/><path class="cls-3" d="M419.37,247.2v-33h-11V207h30.15v7.22H427.41v33Z" transform="translate(-52.11 -40.53)"/><path class="cls-3" d="M458.54,247.47a21.44,21.44,0,0,1-3-.24,9.15,9.15,0,0,1-3.23-1.12,6.69,6.69,0,0,1-2.56-2.63,9.89,9.89,0,0,1-1-4.86V216.18a10.79,10.79,0,0,1,.81-4.45,7.23,7.23,0,0,1,2.18-2.83,8.48,8.48,0,0,1,3-1.47,12.44,12.44,0,0,1,3.21-.43q4.06,0,7.2.11c2.08.07,3.95.15,5.62.24s3.19.21,4.56.36v6.73h-15a3.8,3.8,0,0,0-2.61.82,3.13,3.13,0,0,0-.92,2.5v5.81l15.91.43v6.36l-15.91.43v5.55a4.37,4.37,0,0,0,.46,2.2,2.43,2.43,0,0,0,1.25,1.08,4.6,4.6,0,0,0,1.65.3h15.16v6.74c-1.59.18-3.36.32-5.29.43s-3.9.2-5.87.27S460.31,247.47,458.54,247.47Z" transform="translate(-52.11 -40.53)"/><path class="cls-3" d="M487.65,247.2V207h16.63a16.63,16.63,0,0,1,4.45.57,8.93,8.93,0,0,1,3.64,2,9.33,9.33,0,0,1,2.47,3.91,19.28,19.28,0,0,1,.9,6.42,17.92,17.92,0,0,1-.54,4.72,10.16,10.16,0,0,1-1.44,3.21,8.09,8.09,0,0,1-2,2,14.24,14.24,0,0,1-2.33,1.25l7.49,16.13h-8.2l-6.47-14.88-1.49,0q-.84,0-1.71,0h-1.74c-.58,0-1.1,0-1.58,0v15Zm8-21.35h7.18a6.57,6.57,0,0,0,1.95-.27,3.53,3.53,0,0,0,1.52-1,4.48,4.48,0,0,0,1-1.82,10.34,10.34,0,0,0,.35-2.93,9.56,9.56,0,0,0-.35-2.8,4.09,4.09,0,0,0-1-1.74,3.46,3.46,0,0,0-1.52-.87,7.32,7.32,0,0,0-1.95-.25h-7.18Z" transform="translate(-52.11 -40.53)"/><path class="cls-3" d="M528.45,247.2V207h6.47l16.84,26.51V207h8v40.2h-6.47l-16.78-26.51V247.2Z" transform="translate(-52.11 -40.53)"/><path class="cls-3" d="M570.34,247.2l12.6-40.2H593.1l12.61,40.2h-8.37l-2.55-8.42H581.1l-2.5,8.42ZM583,231.56h9.89l-4.95-17.66Z" transform="translate(-52.11 -40.53)"/><path class="cls-3" d="M626.08,247.2a12.83,12.83,0,0,1-5.25-.95,6.4,6.4,0,0,1-3.2-3,12.22,12.22,0,0,1-1.06-5.52V207h8v29.39a4.27,4.27,0,0,0,.46,2.12,2.42,2.42,0,0,0,1.28,1.11,5.32,5.32,0,0,0,1.85.3h12.71v7.28Z" transform="translate(-52.11 -40.53)"/><path class="cls-3" d="M258,247.2a12.81,12.81,0,0,1-5.24-.95,6.36,6.36,0,0,1-3.2-3,12.22,12.22,0,0,1-1.06-5.52V207h8v29.39a4.27,4.27,0,0,0,.46,2.12,2.39,2.39,0,0,0,1.28,1.11,5.3,5.3,0,0,0,1.84.3h12.72v7.28Z" transform="translate(-52.11 -40.53)"/></svg>