<svg id="Capa_1" data-name="Capa 1" xmlns="http://www.w3.org/2000/svg" viewBox="0 0 684.29 108.74"><defs><style>.cls-1{fill:#e11f1d;}.cls-2{fill:#71a3d8;}</style></defs><title>logos horizontal</title><path class="cls-1" d="M103.17,296.62H58.93V281.09h3.85V242H58.93V226.5H82.27V242H78.41v39.07h9.14v-7.81h15.62Z" transform="translate(-56.29 -226.4)"/><path class="cls-1" d="M161.42,296.62H138.08V281.09h3.86l-.81-3.95H127.22l-.81,3.95h3.86v15.53H106.93V281.09h3.85L119.1,242h-4.46V226.5h39V242h-4.37l8.33,39.07h3.85Zm-23.64-35.11-3.66-16.85-3.55,16.85Z" transform="translate(-56.29 -226.4)"/><path class="cls-1" d="M227.39,296.62H195.31l-7.81-7.82V234.31l7.81-7.81h32.08l7.81,7.81v15.53H219.57V242H203.13v39.07h16.44v-7.81H235.2V288.8Z" transform="translate(-56.29 -226.4)"/><path class="cls-1" d="M293.45,296.62H270.11V281.09H274l-.81-3.95h-13.9l-.81,3.95h3.85v15.53H239V281.09h3.85L251.13,242h-4.47V226.5h39V242h-4.36l8.32,39.07h3.86Zm-23.64-35.11-3.66-16.85-3.55,16.85Z" transform="translate(-56.29 -226.4)"/><path class="cls-1" d="M335.46,296.62H305.22l-7.81-7.82V273.18H313V281h14.61V269.32H305.22l-7.81-7.81v-27.3l7.81-7.81h30.24l7.82,7.81v15.63H327.65V242H313v11.67h22.42l7.82,7.82V288.8Z" transform="translate(-56.29 -226.4)"/><path class="cls-1" d="M401.53,296.62H378.19V281.09H382l-.81-3.95h-13.9l-.81,3.95h3.85v15.53H347V281.09h3.86L359.21,242h-4.47V226.5h39V242h-4.36l8.32,39.07h3.86Zm-23.65-35.11-3.65-16.85-3.55,16.85Z" transform="translate(-56.29 -226.4)"/><path class="cls-1" d="M469.21,296.62h-41.5V281.09h3.85V242h-3.85V226.5h41.5l7.82,7.81V288.8ZM461.4,242H447.2v39.07h14.2Z" transform="translate(-56.29 -226.4)"/><path class="cls-1" d="M481.9,296.62V281h4V242h-4V226.4h47.29v23.44H513.56V242H501.49v11.67h15.12v15.63H501.49V281h12.07v-7.81h15.63v23.44Z" transform="translate(-56.29 -226.4)"/><path class="cls-1" d="M605.2,287.48l-8.73,9.14H555.88V275.21h3.34v-27.3h-3.34V226.5h40.59l8.73,9.13Zm-2.13-50.84-7.53-7.91H558v17h3.45v31.76H558v16.95h37.53l7.53-7.92Zm-1.42,49.21-6.7,7H559.53v-14H563V244.15h-3.45v-14H595l6.7,7Zm-13.4-7V244.15H576.18v34.71Zm-10.66-1.42V245.68h9.14v31.76Zm7-2.23v-27.3h-4.87v27.3Z" transform="translate(-56.29 -226.4)"/><path class="cls-1" d="M639.8,275.11v21.51H608.55V275.11h6.19v-27.2h-6.19V226.4h25.26v48.71Zm-8.12,2.23V228.63h-21v17.05h6v31.66h-6v17.05h27.19V277.34Zm4.77,1.52v14H611.89v-14h6.2V244.15h-6.2v-14h18.47v48.71Z" transform="translate(-56.29 -226.4)"/><path class="cls-1" d="M689.22,287.48l-8.62,9.14H652.08l-8.62-9.14V235.63l8.62-9.13H680.6l8.62,9.13Zm-2.13-50.84-7.4-7.91H653l-7.4,7.91v49.83l7.4,7.92h26.7l7.4-7.92Zm-1.42,49.21-6.59,7H653.6l-6.49-7V237.16l6.49-7h25.48l6.59,7Zm-13.19-7V244.15H660.3v34.71Zm-10.86-1.42V245.68h9.44v31.76Zm7.31-2.23v-27.3h-5.18v27.3Z" transform="translate(-56.29 -226.4)"/><path class="cls-1" d="M738.65,287.48l-8.72,9.14H701.49l-8.61-9.14V268.11h4.67l-4.67-5v-27.6l8.61-9.13h28.44l8.72,9.13v19.38H734l4.67,5Zm-2.14-26.58-7.4-7.91H711v-7.31h9.44v7h16V236.54l-7.4-7.91H702.42L695,236.54v25.58l7.41,7.91h18.06v7.31H711v-7H695v16.13l7.41,7.92h26.69l7.4-7.92Zm-1.41,25-6.61,7H703l-6.59-7V272h13.19v6.9H721.9V268.51H703l-6.59-7V237.15l6.59-7h25.47l6.61,7v13.91H721.9v-6.91H709.62V254.5h18.87l6.61,7Zm-21.92-35.11h5.17v-2.84h-5.17Zm0,21.51v2.85h5.17v-2.85Z" transform="translate(-56.29 -226.4)"/><path class="cls-2" d="M163.48,334.82V307.69h11.44a12,12,0,0,1,2.69.31,6.07,6.07,0,0,1,2.53,1.25,6.44,6.44,0,0,1,1.87,2.8,14.08,14.08,0,0,1,.72,4.95,14.36,14.36,0,0,1-.72,5,7,7,0,0,1-1.85,2.9,5.92,5.92,0,0,1-2.46,1.32,10.52,10.52,0,0,1-2.56.33c-.44,0-1,0-1.54-.06s-1.18-.09-1.78-.16l-1.67-.2L168.9,326v8.87Zm5.42-13.16h5.39a2.85,2.85,0,0,0,1.64-.46,2.68,2.68,0,0,0,1-1.46,9,9,0,0,0,.33-2.7,8.08,8.08,0,0,0-.34-2.62,2.84,2.84,0,0,0-1-1.41,2.6,2.6,0,0,0-1.53-.44h-5.5Z" transform="translate(-56.29 -226.4)"/><path class="cls-2" d="M187.67,334.82l8.51-27.13H203l8.5,27.13H205.9l-1.73-5.68h-9.24l-1.68,5.68Zm8.55-10.56h6.67l-3.34-11.91Z" transform="translate(-56.29 -226.4)"/><path class="cls-2" d="M117.93,334.82l8.51-27.13h6.86l8.5,27.13h-5.64l-1.73-5.68h-9.24l-1.68,5.68Zm8.55-10.56h6.67l-3.34-11.91Z" transform="translate(-56.29 -226.4)"/><path class="cls-2" d="M226.08,334.82V312.57h-7.45v-4.88H239v4.88H231.5v22.25Z" transform="translate(-56.29 -226.4)"/><path class="cls-2" d="M254.66,335a14.19,14.19,0,0,1-2-.17,6.21,6.21,0,0,1-2.18-.75,4.5,4.5,0,0,1-1.73-1.78,6.68,6.68,0,0,1-.68-3.28V313.89a7.39,7.39,0,0,1,.55-3,4.94,4.94,0,0,1,1.47-1.91,5.86,5.86,0,0,1,2-1,8.56,8.56,0,0,1,2.16-.29c1.83,0,3.45,0,4.86.07s2.67.11,3.79.17,2.16.14,3.08.24v4.54H255.87a2.63,2.63,0,0,0-1.76.55,2.16,2.16,0,0,0-.62,1.69v3.92l10.74.3v4.29l-10.74.29v3.74a3,3,0,0,0,.31,1.49,1.63,1.63,0,0,0,.85.73,3.17,3.17,0,0,0,1.11.2H266v4.55c-1.07.12-2.26.22-3.57.29s-2.63.13-4,.18S255.86,335,254.66,335Z" transform="translate(-56.29 -226.4)"/><path class="cls-2" d="M274.4,334.82V307.69h11.22a11.46,11.46,0,0,1,3,.38,6.16,6.16,0,0,1,2.46,1.34,6.35,6.35,0,0,1,1.67,2.64,13.14,13.14,0,0,1,.61,4.33,12.21,12.21,0,0,1-.37,3.19,7,7,0,0,1-1,2.16,5.38,5.38,0,0,1-1.38,1.36,9.19,9.19,0,0,1-1.57.84l5.06,10.89h-5.54l-4.36-10-1,0-1.16,0h-1.17c-.39,0-.75,0-1.07,0v10.12Zm5.42-14.41h4.84a4.6,4.6,0,0,0,1.33-.18,2.39,2.39,0,0,0,1-.64,3,3,0,0,0,.68-1.23,6.76,6.76,0,0,0,.24-2,6.3,6.3,0,0,0-.24-1.89,2.67,2.67,0,0,0-.68-1.17,2.38,2.38,0,0,0-1-.59,5,5,0,0,0-1.33-.16h-4.84Z" transform="translate(-56.29 -226.4)"/><path class="cls-2" d="M305.39,334.82V307.69h4.36l11.37,17.89V307.69h5.43v27.13h-4.37l-11.33-17.89v17.89Z" transform="translate(-56.29 -226.4)"/><path class="cls-2" d="M339.08,334.82l8.51-27.13h6.86l8.5,27.13h-5.64l-1.73-5.68h-9.24l-1.68,5.68Zm8.55-10.56h6.67L351,312.35Z" transform="translate(-56.29 -226.4)"/><path class="cls-2" d="M382.9,334.82a8.72,8.72,0,0,1-3.54-.64,4.31,4.31,0,0,1-2.16-2.05,8.21,8.21,0,0,1-.72-3.72V307.69h5.43v19.84a2.89,2.89,0,0,0,.31,1.43,1.65,1.65,0,0,0,.86.75,3.77,3.77,0,0,0,1.25.2h8.58v4.91Z" transform="translate(-56.29 -226.4)"/><path class="cls-2" d="M103.78,334.82a8.63,8.63,0,0,1-3.53-.64,4.29,4.29,0,0,1-2.17-2.05,8.35,8.35,0,0,1-.71-3.72V307.69h5.43v19.84a2.89,2.89,0,0,0,.31,1.43,1.58,1.58,0,0,0,.86.75,3.68,3.68,0,0,0,1.25.2h8.58v4.91Z" transform="translate(-56.29 -226.4)"/><path class="cls-2" d="M463,335l8.51-27.13h6.85L486.91,335h-5.64l-1.73-5.68H470.3L468.62,335Zm8.55-10.56h6.67l-3.34-11.92Z" transform="translate(-56.29 -226.4)"/><path class="cls-2" d="M494.36,335V307.82h11.22a11.06,11.06,0,0,1,3,.38,6,6,0,0,1,2.46,1.34,6.35,6.35,0,0,1,1.67,2.64,13.14,13.14,0,0,1,.61,4.33,12.26,12.26,0,0,1-.37,3.19,7,7,0,0,1-1,2.16,5.39,5.39,0,0,1-1.38,1.36,9.19,9.19,0,0,1-1.57.84L514.09,335h-5.54l-4.36-10-1,0c-.38,0-.77,0-1.16,0h-1.17c-.39,0-.75,0-1.07,0V335Zm5.42-14.41h4.84a4.6,4.6,0,0,0,1.33-.18,2.39,2.39,0,0,0,1-.64,3,3,0,0,0,.68-1.23,6.86,6.86,0,0,0,.24-2,6.3,6.3,0,0,0-.24-1.89,2.67,2.67,0,0,0-.68-1.17,2.29,2.29,0,0,0-1-.59,5,5,0,0,0-1.33-.17h-4.84Z" transform="translate(-56.29 -226.4)"/><path class="cls-2" d="M529.52,335.14a8,8,0,0,1-4.19-1,6.56,6.56,0,0,1-2.55-2.78,14.29,14.29,0,0,1-1.29-4.35,40.22,40.22,0,0,1-.36-5.64,36.54,36.54,0,0,1,.42-5.84,12.07,12.07,0,0,1,1.5-4.34,7,7,0,0,1,3-2.71,11.67,11.67,0,0,1,5-.94c1.24,0,2.39.05,3.43.15a26.18,26.18,0,0,1,2.95.42c.93.18,1.85.4,2.78.64V313c-.51-.07-1.19-.15-2-.22s-1.81-.14-2.86-.2-2.14-.09-3.26-.09a6.19,6.19,0,0,0-3.51.82,4.43,4.43,0,0,0-1.63,2.79,26,26,0,0,0-.44,5.37,31.88,31.88,0,0,0,.24,4.33,7.64,7.64,0,0,0,.79,2.66,3,3,0,0,0,1.45,1.35,5.59,5.59,0,0,0,2.22.39,15.82,15.82,0,0,0,2.88-.26,21.53,21.53,0,0,0,2.21-.51V324.1h-4.87v-4.29q.76-.12,1.83-.18c.71-.05,1.45-.1,2.22-.13s1.51-.06,2.22-.06l2.11,0c.62,0,1.19,0,1.7.09V335h-4.07l-.73-1.83a18.57,18.57,0,0,1-3,1.32A12.54,12.54,0,0,1,529.52,335.14Z" transform="translate(-56.29 -226.4)"/><path class="cls-2" d="M557.32,335.14a14.32,14.32,0,0,1-2-.17,6.28,6.28,0,0,1-2.18-.75,4.48,4.48,0,0,1-1.72-1.78,6.57,6.57,0,0,1-.68-3.28V314a7.18,7.18,0,0,1,.55-3,4.76,4.76,0,0,1,1.46-1.91,6,6,0,0,1,2-1,8.15,8.15,0,0,1,2.17-.29c1.83,0,3.45,0,4.85.07s2.67.1,3.8.16,2.15.15,3.08.24v4.55H558.53a2.54,2.54,0,0,0-1.76.55,2.13,2.13,0,0,0-.63,1.69V319l10.75.29v4.29l-10.75.3v3.74a2.9,2.9,0,0,0,.32,1.48,1.59,1.59,0,0,0,.84.74,3.22,3.22,0,0,0,1.12.2h10.23v4.55c-1.08.12-2.27.22-3.58.29s-2.62.13-4,.18S558.52,335.14,557.32,335.14Z" transform="translate(-56.29 -226.4)"/><path class="cls-2" d="M577.27,335V307.82h4.36L593,325.71V307.82h5.43V335h-4.37l-11.33-17.89V335Z" transform="translate(-56.29 -226.4)"/><path class="cls-2" d="M613.06,335V312.69h-7.45v-4.87H626v4.87h-7.48V335Z" transform="translate(-56.29 -226.4)"/><path class="cls-2" d="M633.37,335V307.82h5.43V335Z" transform="translate(-56.29 -226.4)"/><path class="cls-2" d="M648.15,335V307.82h4.36l11.37,17.89V307.82h5.43V335h-4.37l-11.33-17.89V335Z" transform="translate(-56.29 -226.4)"/><path class="cls-2" d="M676.53,335,685,307.82h6.86L700.4,335h-5.64L693,329.27h-9.24L682.11,335Zm8.55-10.56h6.67l-3.34-11.92Z" transform="translate(-56.29 -226.4)"/><path class="cls-1" d="M427.12,307.38h1.71l.21,0c.83.15,1.69.23,2.51.45a13.62,13.62,0,0,1,9.89,10.86c.09.5.14,1,.21,1.52v1.66c-.07.49-.12,1-.2,1.47a13.66,13.66,0,0,1-12.85,11.33,13.68,13.68,0,0,1-14.09-11.33c-.09-.49-.14-1-.21-1.47V320.2c0-.33.07-.65.12-1a13.71,13.71,0,0,1,11.23-11.64C426.14,307.5,426.63,307.45,427.12,307.38Zm11.44,6.6a1.85,1.85,0,0,0-.1-.2,12.76,12.76,0,0,0-5.06-4.27.47.47,0,0,0-.35,0l-4.38,1.73a.28.28,0,0,0-.21.31c0,1.39,0,2.78,0,4.17a.46.46,0,0,0,.15.33l4.19,3.35a.41.41,0,0,0,.32.06c1.44-.47,2.87-.94,4.3-1.43a.37.37,0,0,0,.22-.24c.19-.75.37-1.51.54-2.26Zm-11.07-.34c0-.7,0-1.41,0-2.11a.27.27,0,0,0-.2-.29l-4.39-1.73a.52.52,0,0,0-.37,0,12.69,12.69,0,0,0-5.05,4.28.42.42,0,0,0-.07.29c.29,1.23.58,2.47.88,3.7a.35.35,0,0,0,.19.22c1.44.49,2.89,1,4.34,1.44a.42.42,0,0,0,.31-.05q2.1-1.66,4.18-3.35a.54.54,0,0,0,.16-.36C427.5,315,427.49,314.32,427.49,313.64Zm13.19,8.67a1.07,1.07,0,0,0-.11-.2c-.84-1-1.69-2-2.54-3.05a.23.23,0,0,0-.31-.1c-1.42.48-2.85,1-4.27,1.44a.4.4,0,0,0-.22.24c-.43,1.66-.84,3.33-1.25,5a.41.41,0,0,0,0,.31c.67.9,1.34,1.8,2,2.68a.27.27,0,0,0,.23.11c1.4-.21,2.8-.43,4.19-.66a.47.47,0,0,0,.25-.16A12.6,12.6,0,0,0,440.68,322.31Zm-25.41,0c0,.07,0,.08,0,.1a12.92,12.92,0,0,0,1.85,5.41.59.59,0,0,0,.48.3l4,.63a.32.32,0,0,0,.36-.14c.65-.88,1.31-1.74,2-2.61a.5.5,0,0,0,.06-.36c-.4-1.66-.82-3.32-1.24-5a.41.41,0,0,0-.24-.26L418.25,319a.25.25,0,0,0-.32.09l-2.54,3.06A1.11,1.11,0,0,0,415.27,322.29Zm7.36,7c.88,1.38,1.75,2.74,2.63,4.1a.47.47,0,0,0,.31.16,12.6,12.6,0,0,0,5.26-.09.44.44,0,0,0,.25-.17q1.11-1.92,2.19-3.85a.29.29,0,0,0,0-.27c-.65-.89-1.32-1.76-2-2.64a.44.44,0,0,0-.29-.14h-6a.36.36,0,0,0-.26.13C424,327.46,423.33,328.38,422.63,329.32Z" transform="translate(-56.29 -226.4)"/><polygon class="cls-1" points="14.4 103.77 23.3 108.44 21.6 98.53 28.8 91.52 18.85 90.07 14.4 81.05 9.95 90.07 0 91.52 7.2 98.53 5.5 108.44 14.4 103.77"/><polygon class="cls-1" points="669.89 103.77 678.79 108.44 677.09 98.53 684.29 91.52 674.34 90.07 669.89 81.05 665.44 90.07 655.49 91.52 662.69 98.53 660.99 108.44 669.89 103.77"/></svg>